Coordinates
version=1
nRows=13
nColumns=22
inDegrees=yes

Units are S.I. units (second, meters, Newtons, ...)
If the header above contains a line with 'inDegrees', this indicates whether rotational values are in degrees (yes) or radians (no).

endheader
time	pelvis_tilt	pelvis_list	pelvis_rotation	pelvis_tx	pelvis_ty	pelvis_tz	hip_flexion_r	hip_adduction_r	hip_rotation_r	knee_angle_r	ankle_angle_r	subtalar_angle_r	hip_flexion_l	hip_adduction_l	hip_rotation_l	knee_angle_l	ankle_angle_l	subtalar_angle_l	lumbar_extension	lumbar_bending	lumbar_rotation
      2.95000000	      7.68261096	     -0.60465446	      3.04984093	      0.47208356	      0.93613464	     -0.04524757	     -0.58511327	     -0.27377061	     -2.87957703	    -58.12679039	     -2.36149615	      7.57782527	      9.34462739	      2.18877669	     -3.22633261	    -28.99596713	     19.50465140	    -18.39518138	    -14.06521127	      1.33754281	     -8.65020245
      2.96000000	      7.51124348	     -0.50477066	      2.91994749	      0.46311864	      0.93441353	     -0.04423803	     -2.06325677	     -0.22002491	     -2.80915871	    -57.15959076	     -3.42950620	      8.58196695	     10.39827053	      2.27628689	     -3.25768680	    -29.45799420	     19.16115137	    -18.47118345	    -13.74049216	      1.09544001	     -8.28576563
      2.97000000	      7.31568661	     -0.44046399	      2.78015052	      0.45400501	      0.93257110	     -0.04312598	     -3.48567916	     -0.09395841	     -2.68011411	    -55.97863319	     -4.34691496	      9.41459813	     11.50346235	      2.31177275	     -3.31027073	    -29.94219414	     18.86222774	    -18.54578929	    -13.38900816	      0.88697848	     -7.91911233
      2.98000000	      7.09321562	     -0.39906636	      2.61114781	      0.44470659	      0.93063320	     -0.04189957	     -4.83111056	      0.09272240	     -2.44823401	    -54.59932172	     -5.12038324	      9.91352284	     12.63891697	      2.32178754	     -3.32843367	    -30.40019548	     18.53712948	    -18.62536278	    -13.01591812	      0.69353947	     -7.50259452
      2.99000000	      6.84961749	     -0.36600046	      2.42778834	      0.43516988	      0.92857375	     -0.04059204	     -6.09537455	      0.32165585	     -2.11407585	    -53.04294098	     -5.57920868	     10.60404131	     13.83094178	      2.30417168	     -3.39192026	    -30.88698021	     18.13011234	    -18.69384223	    -12.63866705	      0.50885641	     -7.09193610
      3.00000000	      6.62051082	     -0.34531723	      2.21021871	      0.42542996	      0.92650688	     -0.03918913	     -7.32023085	      0.58526130	     -1.67245801	    -51.28649922	     -5.90583551	     10.75963453	     14.98922040	      2.26085401	     -3.46181868	    -31.31412654	     17.71392395	    -18.78338386	    -12.29387495	      0.33814926	     -6.65025796
      3.01000000	      6.38563224	     -0.33465208	      1.96314215	      0.41541462	      0.92437856	     -0.03769438	     -8.46553618	      0.87680264	     -1.11436619	    -49.36862326	     -5.97983212	     10.86017389	     16.15593748	      2.18901803	     -3.55169148	    -31.70834305	     17.24225187	    -18.85791765	    -11.97155470	      0.17757963	     -6.20287275
      3.02000000	      6.16200851	     -0.31938570	      1.68849117	      0.40510511	      0.92224348	     -0.03613060	     -9.54336390	      1.16371709	     -0.46956291	    -47.30836131	     -5.80977001	     10.81054865	     17.29618386	      2.10487446	     -3.66545969	    -32.03681980	     16.69281966	    -18.92925746	    -11.69587725	      0.01766974	     -5.75424904
      3.03000000	      5.95060507	     -0.31791422	      1.36485594	      0.39446816	      0.92011242	     -0.03442831	    -10.53810155	      1.46446777	      0.29460039	    -45.14647739	     -5.36427407	     10.55411593	     18.40605188	      1.97382830	     -3.83073653	    -32.29419209	     16.11299873	    -18.95642095	    -11.47324976	     -0.12623526	     -5.30394376
      3.04000000	      5.76205934	     -0.30549604	      1.02985133	      0.38346921	      0.91801107	     -0.03268710	    -11.44481437	      1.71294762	      1.02174474	    -42.94845148	     -4.54501249	      9.90766109	     19.47090709	      1.83448064	     -4.02117791	    -32.46142436	     15.38635459	    -18.91182363	    -11.32790366	     -0.27424353	     -4.85841644
      3.05000000	      5.60151726	     -0.29430029	      0.66234087	      0.37209627	      0.91597719	     -0.03085956	    -12.24790205	      1.92491603	      1.74058937	    -40.78507641	     -3.27111402	      9.26574779	     20.46710535	      1.66911996	     -4.24216645	    -32.50785035	     14.60018522	    -18.91450880	    -11.26812076	     -0.41554637	     -4.40732812
      3.06000000	      5.46433095	     -0.28830352	      0.30185523	      0.36034985	      0.91401997	     -0.02899772	    -12.92406179	      2.09561677	      2.33553183	    -38.73245436	     -1.52311977	      8.50484790	     21.40262328	      1.47872888	     -4.48144062	    -32.43105386	     13.69324772	    -18.87607083	    -11.29156974	     -0.54216032	     -4.01974566
      3.07000000	      5.35631371	     -0.31058834	     -0.03430320	      0.34822580	      0.91218532	     -0.02714353	    -13.46304510	      2.24994632	      2.74981677	    -36.85104838	      0.66844199	      7.68378990	     22.26552696	      1.24528635	     -4.72549975	    -32.21439257	     12.66849577	    -18.78611954	    -11.40800389	     -0.61982868	     -3.68424838
